<?xml version="1.0" encoding="UTF-8"?>
<svg width="400" height="75.035" version="1.1" viewBox="0 0 400 75.035" xml:space="preserve" xmlns="http://www.w3.org/2000/svg" xmlns:cc="http://creativecommons.org/ns#" xmlns:dc="http://purl.org/dc/elements/1.1/" xmlns:rdf="http://www.w3.org/1999/02/22-rdf-syntax-ns#" xmlns:xlink="http://www.w3.org/1999/xlink"><metadata><rdf:RDF><cc:Work rdf:about=""><dc:format>image/svg+xml</dc:format><dc:type rdf:resource="http://purl.org/dc/dcmitype/StillImage"/><dc:title/></cc:Work></rdf:RDF></metadata>
<style type="text/css">
	.st0{clip-path:url(#SVGID_2_);fill:#000051;}
	.st1{clip-path:url(#SVGID_2_);fill:#0788FE;}
	.st2{clip-path:url(#SVGID_2_);fill:#A06FFE;}
	.st3{clip-path:url(#SVGID_2_);fill:#00D9CB;}
</style>
<g transform="matrix(.4388 0 0 .4388 -24.759 -30.76)">
	<defs>
		<rect id="SVGID_1_" x="56.4" y="70.1" width="911.6" height="171"/>
	</defs>
	<clipPath id="SVGID_2_">
		<use width="100%" height="100%" xlink:href="#SVGID_1_"/>
	</clipPath><g fill="#000051">
	<path class="st0" d="m332.2 126.4c-12.8 0-24.3 5.1-32.3 14.1v-45.7c0-1.8-1.4-3.2-3.2-3.2h-9.4c-1.8 0-3.2 1.5-3.2 3.2v119.6c0 1.8 1.4 3.2 3.2 3.2h9.4c1.8 0 3.2-1.5 3.2-3.2v-8.9c8 9 19.5 14.1 32.3 14.1 25.8 0 45.2-20 45.2-46.6 0.1-26.6-19.4-46.6-45.2-46.6m-1.6 15.6c17.5 0 30.7 13.3 30.7 31s-13.2 31-30.7 31-30.7-13.3-30.7-31 13.2-31 30.7-31" clip-path="url(#SVGID_2_)"/>
	<path class="st0" d="m488.1 128.4h-9.4c-1.8 0-3.2 1.5-3.2 3.2v8.9c-8-9-19.5-14.1-32.3-14.1-25.7 0-45.1 20-45.1 46.6s19.4 46.6 45.1 46.6c12.8 0 24.3-5.1 32.3-14.1v8.9c0 1.8 1.4 3.2 3.2 3.2h9.4c1.8 0 3.2-1.5 3.2-3.2v-82.8c0-1.8-1.4-3.2-3.2-3.2m-43.3 75.6c-17.4 0-30.5-13.3-30.5-31s13.1-31 30.5-31c17.5 0 30.7 13.3 30.7 31s-13.2 31-30.7 31" clip-path="url(#SVGID_2_)"/>
	<path class="st0" d="m567.1 126.4c-11.8 0-21.7 3.9-28.8 11v-5.8c0-1.8-1.4-3.2-3.2-3.2h-9.4c-1.8 0-3.2 1.5-3.2 3.2v82.8c0 1.8 1.4 3.2 3.2 3.2h9.4c1.8 0 3.2-1.5 3.2-3.2v-47.1c0-15.4 10.2-25.3 26-25.3 15 0 24.7 9.8 24.7 25v47.4c0 1.8 1.4 3.2 3.2 3.2h9.4c1.8 0 3.2-1.5 3.2-3.2v-50.2c0.1-22.6-15.1-37.8-37.7-37.8" clip-path="url(#SVGID_2_)"/>
	<path class="st0" d="m681.1 128.7h-2.4c-11.1 0-20.8 4.1-27.8 11.7v-8.7c0-1.8-1.4-3.2-3.2-3.2h-9.4c-1.8 0-3.2 1.5-3.2 3.2v82.8c0 1.8 1.4 3.2 3.2 3.2h9.4c1.8 0 3.2-1.5 3.2-3.2v-41.1c0-17.5 10.6-28.4 27.8-28.4h2.4c1.8 0 3.2-1.5 3.2-3.2v-9.7c0.1-2-1.4-3.4-3.2-3.4" clip-path="url(#SVGID_2_)"/>
	<path class="st0" d="m718.9 128.4h-9.4c-1.8 0-3.2 1.5-3.2 3.2v82.8c0 1.8 1.4 3.2 3.2 3.2h9.4c1.8 0 3.2-1.5 3.2-3.2v-82.8c0.1-1.8-1.4-3.2-3.2-3.2" clip-path="url(#SVGID_2_)"/>
	<path class="st0" d="m714.2 95.4c-5.5 0-10 4.4-10 9.9 0 5.6 4.4 10.1 10 10.1 5.7 0 10.2-4.4 10.2-10.1 0-5.5-4.4-9.9-10.2-9.9" clip-path="url(#SVGID_2_)"/>
	<path class="st0" d="m786.9 165.1c-12.5-3-20.8-5.5-20.8-12.9 0-7 8.8-10.7 17.4-10.7 8.3 0 16.1 3.2 21.2 8.9 0.6 0.7 1.6 1.1 2.5 1 1 0 1.8-0.5 2.4-1.3l5.3-7c1-1.3 0.9-3.1-0.3-4.3-8-8-19.1-12.5-31.4-12.5-19.7 0-33.4 10.9-33.4 26.5 0 19 17.6 23.5 31.9 27.2 12.3 3 20.3 5.5 20.3 12.8 0 6.9-8 11.7-19.4 11.7-10 0-18.7-3.6-24.6-10.3-0.6-0.7-1.6-1.1-2.5-1.1-1 0-1.9 0.5-2.4 1.2l-5.3 6.8c-1 1.3-0.9 3.1 0.2 4.3 8.6 9 21.3 14.2 34.8 14.2 21.2 0 35.4-11.2 35.4-27.8 0.1-18.9-18.1-23.4-31.3-26.7" clip-path="url(#SVGID_2_)"/>
	<path class="st0" d="m918.6 128.4h-9.4c-1.8 0-3.2 1.5-3.2 3.2v48.9c0 14.3-9.3 23.5-23.7 23.5-14.5 0-23.9-9.2-23.9-23.5v-48.9c0-1.8-1.4-3.2-3.2-3.2h-9.4c-1.8 0-3.2 1.5-3.2 3.2v50.2c0 22.6 16 37.8 39.7 37.8s39.6-15.2 39.6-37.8v-50.2c-0.1-1.8-1.5-3.2-3.3-3.2" clip-path="url(#SVGID_2_)"/>
	<path class="st0" d="m964.8 91.5h-9.4c-1.8 0-3.2 1.5-3.2 3.2v119.6c0 1.8 1.4 3.2 3.2 3.2h9.4c1.8 0 3.2-1.5 3.2-3.2v-119.5c0-1.8-1.4-3.3-3.2-3.3" clip-path="url(#SVGID_2_)"/>
	</g><path class="st1" d="m202.6 113.5-21.5-37.5c-2.1-3.7-6.1-6-10.3-6h-43c-4.3 0-8.2 2.3-10.3 6l-21.5 37.5c-2.1 3.7-2.1 8.3 0 12l21.5 37.5c2.1 3.7 6.1 6 10.3 6h15.6l5.9-10.3h-21.5c-0.6 0-1.2-0.3-1.5-0.9l-21.5-37.5c-0.3-0.5-0.3-1.2 0-1.7l21.5-37.5c0.3-0.5 0.9-0.9 1.5-0.9h43c0.6 0 1.2 0.3 1.5 0.9l21.5 37.5c0.3 0.5 0.3 1.2 0 1.7l-12.5 21.8h11.8l9.6-16.6c2.1-3.7 2.1-8.3-0.1-12" clip-path="url(#SVGID_2_)" fill="#0788fe"/>
	<path class="st2" d="m164.7 185.6-9.6-16.6h-11.8l12.5 21.8c0.3 0.5 0.3 1.2 0 1.7l-21.5 37.5c-0.3 0.5-0.9 0.9-1.5 0.9h-43c-0.6 0-1.2-0.3-1.5-0.9l-21.5-37.5c-0.3-0.5-0.3-1.2 0-1.7l21.5-37.5c0.3-0.5 0.9-0.9 1.5-0.9h21.5l-5.9-10.3h-15.5c-4.3 0-8.2 2.3-10.3 6l-21.6 37.5c-2.1 3.7-2.1 8.3 0 12l21.5 37.5c2.1 3.7 6.1 6 10.3 6h43c4.3 0 8.2-2.3 10.3-6l21.5-37.5c2.3-3.7 2.3-8.3 0.1-12" clip-path="url(#SVGID_2_)" fill="#a06ffe"/>
	<path class="st3" d="m240.5 185.6-21.5-37.4c-2.1-3.7-6.1-6-10.3-6h-43c-4.3 0-8.2 2.3-10.3 6l-12 20.8h11.8l9-15.7c0.3-0.5 0.9-0.9 1.5-0.9h43c0.6 0 1.2 0.3 1.5 0.9l21.5 37.5c0.3 0.5 0.3 1.2 0 1.7l-21.5 37.5c-0.3 0.5-0.9 0.9-1.5 0.9h-43c-0.6 0-1.2-0.3-1.5-0.9l-9-15.6-5.9 10.3 6.1 10.5c2.1 3.7 6.1 6 10.3 6h43c4.3 0 8.2-2.3 10.3-6l21.5-37.5c2.2-3.8 2.2-8.4 0-12.1" clip-path="url(#SVGID_2_)" fill="#00d9cb"/>
</g>
</svg>
